<svg width="114" height="34" viewBox="0 0 114 34" fill="none" xmlns="http://www.w3.org/2000/svg">
<path d="M14.8461 5.02563V28.359M23.0957 8.44272L6.59653 24.9419M26.5128 16.6923H3.17944M23.0957 24.9419L6.59653 8.44272" stroke="black" stroke-width="2.5" stroke-linecap="round" stroke-linejoin="round"/>
<path d="M34.4981 26.6923C34.1061 26.6923 33.8168 26.5523 33.6301 26.2723C33.4621 25.9923 33.3781 25.6096 33.3781 25.1243C33.3781 24.8443 33.4061 24.5363 33.4621 24.2003C33.5181 23.8643 33.5835 23.5096 33.6581 23.1363C33.8821 22.1469 34.2275 21.0549 34.6941 19.8603C35.1795 18.6469 35.7301 17.4056 36.3461 16.1363C36.9808 14.8483 37.6155 13.5976 38.2501 12.3843C38.9035 11.1709 39.5101 10.0603 40.0701 9.05226C40.1075 8.97759 40.1821 8.83759 40.2941 8.63226C40.4248 8.42693 40.5275 8.27759 40.6021 8.18426C39.8741 8.20293 39.0901 8.29626 38.2501 8.46426C37.4288 8.61359 36.6355 8.82826 35.8701 9.10826C35.1235 9.38826 34.4795 9.71493 33.9381 10.0883C33.4155 10.4616 33.0795 10.8723 32.9301 11.3203C32.9115 11.3763 32.8741 11.4043 32.8181 11.4043C32.6501 11.4043 32.5661 11.2736 32.5661 11.0123C32.5661 10.9563 32.5848 10.8723 32.6221 10.7603C32.8088 10.2749 33.0235 9.84559 33.2661 9.47226C33.5088 9.09893 33.7608 8.78159 34.0221 8.52026C34.6381 7.88559 35.3288 7.50293 36.0941 7.37226C36.8595 7.22293 37.6715 7.14826 38.5301 7.14826H44.8861C44.4755 7.46559 43.9901 8.04426 43.4301 8.88426C42.8701 9.70559 42.2915 10.6389 41.6941 11.6843C41.4328 12.1509 41.1061 12.7576 40.7141 13.5043C40.3221 14.2509 39.9115 15.0816 39.4821 15.9963C39.0528 16.8923 38.6421 17.7976 38.2501 18.7123C37.8581 19.6269 37.5221 20.4949 37.2421 21.3163C36.9621 22.1189 36.7848 22.8096 36.7101 23.3883C36.6915 23.4816 36.6821 23.5749 36.6821 23.6683C36.6821 23.7429 36.6821 23.8269 36.6821 23.9203C36.6821 24.4429 36.8221 24.8816 37.1021 25.2363C37.3821 25.5723 37.9048 25.7403 38.6701 25.7403C39.6595 25.7403 40.6581 25.7029 41.6661 25.6283C42.6928 25.5349 43.6915 25.3483 44.6621 25.0683C45.4835 24.8256 46.2301 24.4989 46.9021 24.0883C47.5741 23.6776 48.0595 23.1643 48.3581 22.5483C48.3955 22.4736 48.4421 22.4363 48.4981 22.4363C48.6288 22.4363 48.6941 22.5389 48.6941 22.7443C48.6941 22.7816 48.6848 22.8283 48.6661 22.8843C48.6661 22.9403 48.6568 23.0056 48.6381 23.0803C48.4888 23.5656 48.3115 23.9949 48.1061 24.3683C47.9008 24.7416 47.6955 25.0589 47.4901 25.3203C46.9675 25.9549 46.2861 26.3469 45.4461 26.4963C44.6248 26.6269 43.8035 26.6923 42.9821 26.6923H34.4981ZM50.0189 26.8603C49.5335 26.8603 49.1322 26.6363 48.8149 26.1883C48.5162 25.7216 48.4042 25.0029 48.4789 24.0323C48.5162 23.6216 48.6095 23.0989 48.7589 22.4643C48.9082 21.8296 49.1042 21.1483 49.3469 20.4203C49.6082 19.6736 49.8975 18.9549 50.2149 18.2643C50.5322 17.5549 50.8775 16.9296 51.2509 16.3883C51.4562 16.1083 51.6615 15.9403 51.8669 15.8843C52.0909 15.8096 52.4922 15.7723 53.0709 15.7723H54.4149C54.0975 16.2203 53.7615 16.7803 53.4069 17.4523C53.0522 18.1243 52.7255 18.7963 52.4269 19.4683C52.1282 20.1216 51.8949 20.6723 51.7269 21.1203C51.6895 21.2509 51.6149 21.4843 51.5029 21.8203C51.3909 22.1376 51.2882 22.4923 51.1949 22.8843C51.1015 23.2763 51.0549 23.6403 51.0549 23.9763C51.0549 24.2749 51.1109 24.5269 51.2229 24.7323C51.3349 24.9376 51.5402 25.0403 51.8389 25.0403C52.1935 25.0216 52.5762 24.7976 52.9869 24.3683C53.3975 23.9389 53.8082 23.3883 54.2189 22.7163C54.6295 22.0443 55.0309 21.3443 55.4229 20.6163C55.8335 19.8696 56.1975 19.1789 56.5149 18.5443C56.8509 17.8909 57.1309 17.3869 57.3549 17.0323C57.6349 16.6029 57.9335 16.2296 58.2509 15.9123C58.5682 15.5763 58.9322 15.4083 59.3429 15.4083C59.4922 15.4083 59.6882 15.4176 59.9309 15.4363C60.1922 15.4363 60.4442 15.4363 60.6869 15.4363C60.9482 15.4363 61.1255 15.4269 61.2189 15.4083C61.1069 15.4829 60.9762 15.6323 60.8269 15.8563C60.6775 16.0803 60.5282 16.3136 60.3789 16.5563C60.2482 16.7803 60.1455 16.9669 60.0709 17.1163C59.5855 18.0869 59.1095 19.0669 58.6429 20.0563C58.1949 21.0269 57.8589 21.9509 57.6349 22.8283C57.5415 23.1643 57.4949 23.4536 57.4949 23.6963C57.4949 24.2563 57.6815 24.5363 58.0549 24.5363C58.3162 24.5363 58.6895 24.3496 59.1749 23.9763C59.5482 23.6776 59.9122 23.2949 60.2669 22.8283C60.6589 22.3429 61.0229 21.8203 61.3589 21.2603C61.6949 20.7003 61.9842 20.1869 62.2269 19.7203C62.3015 19.5896 62.3669 19.5243 62.4229 19.5243C62.5349 19.5243 62.5909 19.6736 62.5909 19.9723C62.5909 20.1216 62.5629 20.2989 62.5069 20.5043C62.4695 20.6909 62.3949 20.8776 62.2829 21.0643C62.0215 21.5123 61.7135 22.0069 61.3589 22.5483C61.0042 23.0709 60.6402 23.5936 60.2669 24.1163C60.0055 24.4523 59.6602 24.8349 59.2309 25.2643C58.8015 25.6936 58.3442 26.0669 57.8589 26.3843C57.3922 26.7016 56.9349 26.8603 56.4869 26.8603C56.2255 26.8603 55.9829 26.8043 55.7589 26.6923C55.5349 26.5989 55.3482 26.4029 55.1989 26.1043C55.0122 25.7123 54.9189 25.1803 54.9189 24.5083C54.9189 24.3029 54.9282 24.0883 54.9469 23.8643C54.9655 23.6216 54.9935 23.3789 55.0309 23.1363C54.7509 23.5283 54.4522 23.8923 54.1349 24.2283C53.8362 24.5643 53.5282 24.9003 53.2109 25.2363C52.5015 25.9456 51.8949 26.3936 51.3909 26.5803C50.9055 26.7669 50.4482 26.8603 50.0189 26.8603ZM64.725 26.8883C64.1277 26.8883 63.6983 26.6363 63.437 26.1323C63.2317 25.6843 63.129 25.1523 63.129 24.5363C63.129 23.8456 63.2317 23.0803 63.437 22.2403C63.6423 21.4003 63.9223 20.5416 64.277 19.6643C64.4077 19.3469 64.5757 18.9456 64.781 18.4603C65.005 17.9749 65.2663 17.4989 65.565 17.0323C65.3037 17.2563 64.9957 17.4429 64.641 17.5923C64.2863 17.7229 63.941 17.7883 63.605 17.7883C63.3437 17.7883 63.129 17.7509 62.961 17.6763C62.8117 17.9749 62.569 18.4603 62.233 19.1323C61.897 19.8043 61.449 20.5976 60.889 21.5123C60.833 21.6056 60.777 21.6056 60.721 21.5123C60.6837 21.4003 60.665 21.2509 60.665 21.0643C60.665 20.9149 60.6837 20.7563 60.721 20.5883C60.7583 20.4203 60.8143 20.2616 60.889 20.1123C61.0757 19.7576 61.2623 19.3936 61.449 19.0203C61.6357 18.6283 61.8037 18.2829 61.953 17.9843C62.1023 17.6856 62.1863 17.4989 62.205 17.4243C61.869 17.2563 61.617 17.0229 61.449 16.7243C61.281 16.4069 61.197 16.0989 61.197 15.8003C61.197 15.5016 61.2623 15.2309 61.393 14.9883C61.5423 14.7456 61.757 14.5589 62.037 14.4283C62.205 14.3723 62.3637 14.3443 62.513 14.3443C62.9237 14.3443 63.2597 14.4749 63.521 14.7363C63.5023 14.8109 63.4837 14.8949 63.465 14.9883C63.465 15.0629 63.465 15.1469 63.465 15.2403C63.465 15.8189 63.6983 16.2483 64.165 16.5283C64.6317 16.8083 65.1357 16.9109 65.677 16.8363C65.9383 16.4629 66.237 16.1363 66.573 15.8563C66.909 15.5763 67.273 15.4363 67.665 15.4363C67.8703 15.4363 68.1597 15.4456 68.533 15.4643C68.925 15.4829 69.205 15.4829 69.373 15.4643C69.261 15.5389 69.1303 15.6883 68.981 15.9123C68.8317 16.1363 68.6917 16.3696 68.561 16.6123C68.4303 16.8549 68.3277 17.0416 68.253 17.1723C67.749 18.1429 67.2823 19.1136 66.853 20.0843C66.4237 21.0363 66.097 21.9509 65.873 22.8283C65.8357 22.9963 65.7983 23.1549 65.761 23.3043C65.7423 23.4349 65.733 23.5749 65.733 23.7243C65.733 24.2843 65.9197 24.5643 66.293 24.5643C66.5543 24.5643 66.9277 24.3776 67.413 24.0043C67.8423 23.6496 68.225 23.2576 68.561 22.8283C68.9343 22.3429 69.289 21.8203 69.625 21.2603C69.961 20.7003 70.2503 20.1869 70.493 19.7203C70.5863 19.5709 70.6517 19.4963 70.689 19.4963C70.801 19.4963 70.857 19.6643 70.857 20.0003C70.857 20.1309 70.8383 20.2896 70.801 20.4763C70.7637 20.6629 70.6983 20.8403 70.605 21.0083C70.325 21.4749 70.0077 21.9883 69.653 22.5483C69.2983 23.0896 68.9343 23.6216 68.561 24.1443C68.3183 24.4803 67.973 24.8629 67.525 25.2923C67.0957 25.7216 66.629 26.0949 66.125 26.4123C65.6397 26.7296 65.173 26.8883 64.725 26.8883ZM74.8879 26.3003C74.0292 26.7483 73.1239 26.9723 72.1719 26.9723C71.3692 26.9723 70.6226 26.7763 69.9319 26.3843C69.2412 25.9923 68.7746 25.3669 68.5319 24.5083C68.4199 24.1163 68.3639 23.7056 68.3639 23.2763C68.3639 22.5669 68.4852 21.8389 68.7279 21.0923C68.9892 20.3269 69.3252 19.6269 69.7359 18.9923C70.3706 18.0029 71.1732 17.1816 72.1439 16.5283C73.1146 15.8749 74.1879 15.5483 75.3639 15.5483C76.2412 15.5483 76.9226 15.7723 77.4079 16.2203C77.8932 16.6683 78.1359 17.1909 78.1359 17.7883C78.1359 18.4976 77.8932 19.1229 77.4079 19.6643C76.9412 20.1869 76.3252 20.5883 75.5599 20.8683C75.1866 20.9989 74.7852 21.1016 74.3559 21.1763C73.9452 21.2323 73.5532 21.2603 73.1799 21.2603C72.4146 21.2603 71.8266 21.1576 71.4159 20.9523C71.0612 21.8669 70.8839 22.7069 70.8839 23.4723C70.8839 24.1629 71.0426 24.7323 71.3599 25.1803C71.6772 25.6096 72.1812 25.8243 72.8719 25.8243C73.4506 25.8243 74.0199 25.6656 74.5799 25.3483C75.1586 25.0309 75.6906 24.6389 76.1759 24.1723C76.6799 23.7056 77.0999 23.2576 77.4359 22.8283C77.6972 22.5109 77.9212 22.2123 78.1079 21.9323C78.2946 21.6523 78.4906 21.3349 78.6959 20.9803C78.9012 20.6069 79.1439 20.1496 79.4239 19.6083C79.4986 19.4776 79.5639 19.4123 79.6199 19.4123C79.7319 19.4123 79.7879 19.5616 79.7879 19.8603C79.7879 20.0283 79.7599 20.2149 79.7039 20.4203C79.6666 20.6069 79.5919 20.8029 79.4799 21.0083C79.2186 21.4749 78.9012 21.9883 78.5279 22.5483C78.1732 23.0896 77.8092 23.6123 77.4359 24.1163C77.0999 24.5643 76.7172 24.9749 76.2879 25.3483C75.8586 25.7216 75.3919 26.0389 74.8879 26.3003ZM72.3399 20.3363C72.4332 20.3923 72.5359 20.4296 72.6479 20.4483C72.7599 20.4669 72.8719 20.4763 72.9839 20.4763C73.3572 20.4763 73.7306 20.3923 74.1039 20.2243C74.4772 20.0376 74.7946 19.8509 75.0559 19.6643C75.4852 19.3656 75.8492 19.0109 76.1479 18.6003C76.4466 18.1896 76.6146 17.7229 76.6519 17.2003C76.6706 16.9763 76.6146 16.7896 76.4839 16.6403C76.3719 16.4723 76.1666 16.3883 75.8679 16.3883C75.7186 16.3883 75.5319 16.4163 75.3079 16.4723C75.0092 16.5469 74.7106 16.6869 74.4119 16.8923C74.1132 17.0976 73.8239 17.3403 73.5439 17.6203C73.4506 17.7136 73.2826 17.9003 73.0399 18.1803C72.8159 18.4416 72.6012 18.7403 72.3959 19.0763C72.1906 19.3936 72.0879 19.6736 72.0879 19.9163C72.0879 20.1216 72.1719 20.2616 72.3399 20.3363ZM80.8351 26.9163C80.7604 26.8789 80.6111 26.8136 80.3871 26.7203C80.1817 26.6269 79.9857 26.5149 79.7991 26.3843C79.5751 26.2163 79.4631 26.0109 79.4631 25.7683C79.4631 25.5069 79.5844 25.2549 79.8271 25.0123C80.0137 24.8069 80.2471 24.6389 80.5271 24.5083C80.8071 24.3776 81.1151 24.3123 81.4511 24.3123C81.7684 24.3123 82.0391 24.3683 82.2631 24.4803C82.4871 24.5736 82.5991 24.7509 82.5991 25.0123C82.5991 25.0683 82.5804 25.1709 82.5431 25.3203C82.3937 25.3389 82.1977 25.4509 81.9551 25.6563C81.7124 25.8616 81.4791 26.0856 81.2551 26.3283C81.0497 26.5709 80.9097 26.7669 80.8351 26.9163ZM85.2446 26.8603C84.722 26.8603 84.33 26.6736 84.0686 26.3003C83.8073 25.9083 83.6766 25.3856 83.6766 24.7323C83.6766 24.6389 83.6766 24.5456 83.6766 24.4523C83.6766 24.3589 83.686 24.2656 83.7046 24.1723C83.798 23.4629 83.9566 22.6603 84.1806 21.7643C84.4233 20.8683 84.7033 19.9256 85.0206 18.9363C85.2073 18.3763 85.4406 17.6763 85.7206 16.8363C86.0193 15.9776 86.3646 15.0629 86.7566 14.0923C87.1486 13.1029 87.578 12.1229 88.0446 11.1523C88.53 10.1816 89.062 9.30426 89.6406 8.52026C90.2193 7.71759 90.826 7.07359 91.4606 6.58826C92.114 6.10293 92.8046 5.86026 93.5326 5.86026C94.13 5.86026 94.5406 6.00959 94.7646 6.30826C94.9886 6.58826 95.1006 6.92426 95.1006 7.31626C95.1006 7.72693 95.026 8.14693 94.8766 8.57626C94.7273 8.98693 94.578 9.33226 94.4286 9.61226C94.0926 10.2843 93.654 11.0403 93.1126 11.8803C92.5713 12.7203 92.002 13.5043 91.4046 14.2323C91.05 14.6989 90.6113 15.2216 90.0886 15.8003C89.566 16.3789 89.0713 16.9109 88.6046 17.3963C88.1566 17.8816 87.83 18.2176 87.6246 18.4043L87.1766 19.6923C87.046 20.0469 86.9153 20.4669 86.7846 20.9523C86.6726 21.4376 86.57 21.9229 86.4766 22.4083C86.402 22.8749 86.3366 23.2856 86.2806 23.6403C86.262 23.7149 86.2526 23.7896 86.2526 23.8643C86.2526 23.9389 86.2526 24.0043 86.2526 24.0603C86.2526 24.6203 86.4673 24.9003 86.8966 24.9003C87.158 24.9003 87.4846 24.7789 87.8766 24.5363C88.25 24.3123 88.6046 24.0229 88.9406 23.6683C89.2953 23.2949 89.5473 23.0149 89.6966 22.8283C90.07 22.3429 90.4246 21.8296 90.7606 21.2883C91.0966 20.7283 91.386 20.2149 91.6286 19.7483C91.722 19.5989 91.7873 19.5243 91.8246 19.5243C91.9366 19.5243 91.9926 19.6829 91.9926 20.0003C91.9926 20.1496 91.9646 20.3269 91.9086 20.5323C91.8713 20.7189 91.806 20.8963 91.7126 21.0643C91.4513 21.5123 91.1433 22.0069 90.7886 22.5483C90.434 23.0896 90.07 23.6123 89.6966 24.1163C89.4166 24.4896 89.0246 24.8909 88.5206 25.3203C88.0166 25.7496 87.4753 26.1136 86.8966 26.4123C86.318 26.7109 85.7673 26.8603 85.2446 26.8603ZM88.1846 16.8083C89.118 15.7069 90.0606 14.5309 91.0126 13.2803C91.9833 12.0109 92.786 10.7229 93.4206 9.41626C93.458 9.32293 93.542 9.13626 93.6726 8.85626C93.8033 8.57626 93.9246 8.26826 94.0366 7.93226C94.1486 7.57759 94.2046 7.27893 94.2046 7.03626C94.2046 6.71893 94.0833 6.56026 93.8406 6.56026H93.6446C93.402 6.56026 93.1126 6.72826 92.7766 7.06426C92.4593 7.40026 92.1326 7.84826 91.7966 8.40826C91.3673 9.11759 90.9473 9.93893 90.5366 10.8723C90.126 11.7869 89.7246 12.7576 89.3326 13.7843C88.9406 14.8109 88.558 15.8189 88.1846 16.8083ZM92.7506 26.9163C91.8919 26.9163 91.1453 26.6456 90.5106 26.1043C89.8946 25.5629 89.5866 24.6949 89.5866 23.5003C89.5866 22.6229 89.7453 21.7083 90.0626 20.7563C90.3799 19.8043 90.8279 18.9176 91.4066 18.0963C92.0039 17.2749 92.7226 16.6029 93.5626 16.0803C94.4026 15.5576 95.3453 15.2963 96.3906 15.2963C97.2493 15.2963 97.9119 15.4643 98.3786 15.8003C98.8639 16.1176 99.2093 16.5469 99.4146 17.0883C99.6199 17.6296 99.7226 18.2083 99.7226 18.8243C99.7226 19.2909 99.6666 19.7669 99.5546 20.2523C99.4613 20.7189 99.3213 21.1856 99.1346 21.6523C99.4519 22.0256 99.8533 22.2123 100.339 22.2123C100.861 22.2123 101.347 22.0163 101.795 21.6243C102.056 21.4003 102.289 21.1203 102.495 20.7843C102.719 20.4296 102.915 20.1029 103.083 19.8043C103.139 19.6923 103.204 19.6363 103.279 19.6363C103.372 19.6363 103.419 19.7669 103.419 20.0283C103.419 20.1963 103.391 20.3923 103.335 20.6163C103.297 20.8403 103.204 21.0643 103.055 21.2883C102.775 21.7736 102.485 22.1469 102.187 22.4083C101.888 22.6509 101.552 22.8469 101.179 22.9963C100.899 23.1083 100.6 23.1643 100.283 23.1643C99.7039 23.1643 99.1813 22.9869 98.7146 22.6323C98.5653 22.9496 98.3786 23.2763 98.1546 23.6123C97.6133 24.5269 96.9133 25.3109 96.0546 25.9643C95.1959 26.5989 94.0946 26.9163 92.7506 26.9163ZM93.8146 25.8523C94.2439 25.8523 94.6546 25.7123 95.0466 25.4323C95.4573 25.1336 95.8306 24.7696 96.1666 24.3403C96.5026 23.9109 96.7919 23.4629 97.0346 22.9963C97.2959 22.5296 97.5106 22.1189 97.6786 21.7643C97.0439 21.2229 96.7266 20.5416 96.7266 19.7203C96.7266 19.1789 96.8759 18.7589 97.1746 18.4603C97.4733 18.1616 97.8839 18.0309 98.4066 18.0683C98.3879 17.6389 98.2759 17.2843 98.0706 17.0043C97.8653 16.7243 97.5293 16.5843 97.0626 16.5843C96.6333 16.5843 96.2226 16.7149 95.8306 16.9763C95.4573 17.2376 95.1026 17.5736 94.7666 17.9843C94.4493 18.3763 94.1599 18.7869 93.8986 19.2163C93.6559 19.6269 93.4506 20.0003 93.2826 20.3363C93.0399 20.8216 92.8159 21.4096 92.6106 22.1003C92.4053 22.7909 92.3026 23.4349 92.3026 24.0323C92.3026 24.5549 92.4053 24.9936 92.6106 25.3483C92.8346 25.6843 93.2359 25.8523 93.8146 25.8523ZM100.754 33.2723C100.138 33.2723 99.5691 33.1416 99.0464 32.8803C98.5238 32.6376 98.2624 32.1803 98.2624 31.5083C98.2624 31.1349 98.3744 30.7523 98.5984 30.3603C98.8224 29.9869 99.1398 29.7443 99.5504 29.6323C99.5878 29.6136 99.6344 29.6043 99.6904 29.6043C99.7464 29.6043 99.7931 29.6043 99.8304 29.6043C100.334 29.6043 100.67 29.8003 100.838 30.1923C100.801 30.2109 100.745 30.2669 100.67 30.3603C100.596 30.4723 100.54 30.5563 100.502 30.6123C100.334 30.9483 100.25 31.2469 100.25 31.5083C100.25 31.8069 100.344 32.0403 100.53 32.2083C100.736 32.3763 100.997 32.4603 101.314 32.4603C101.576 32.4603 101.856 32.3949 102.154 32.2643C102.472 32.1523 102.798 31.9656 103.134 31.7043C103.732 31.2189 104.217 30.6309 104.59 29.9403C104.982 29.2683 105.318 28.6056 105.598 27.9523C106.084 26.7949 106.541 25.5723 106.97 24.2843C107.418 22.9963 107.857 21.7549 108.286 20.5603C107.932 21.2136 107.549 21.8669 107.138 22.5203C106.746 23.1736 106.345 23.7429 105.934 24.2283C105.337 24.9563 104.702 25.5629 104.03 26.0483C103.377 26.5336 102.724 26.7763 102.07 26.7763C101.548 26.7763 101.1 26.5896 100.726 26.2163C100.353 25.8243 100.166 25.1523 100.166 24.2003C100.166 23.2296 100.334 22.2309 100.67 21.2043C101.006 20.1776 101.473 19.2256 102.07 18.3483C102.686 17.4523 103.405 16.7336 104.226 16.1923C105.066 15.6509 105.981 15.3803 106.97 15.3803C107.288 15.3803 107.633 15.4269 108.006 15.5203C108.38 15.6136 108.716 15.7816 109.014 16.0243C109.332 16.2669 109.546 16.6123 109.658 17.0603C109.92 16.5003 110.237 16.0989 110.61 15.8563C110.984 15.6136 111.628 15.4923 112.542 15.4923H113.662C113.308 15.7163 112.953 16.1363 112.598 16.7523C112.244 17.3496 111.908 18.0589 111.59 18.8803C111.348 19.4776 111.068 20.1776 110.75 20.9803C110.452 21.7829 110.172 22.5483 109.91 23.2763C109.668 23.9483 109.388 24.6949 109.07 25.5163C108.772 26.3376 108.426 27.1496 108.034 27.9523C107.661 28.7549 107.232 29.4643 106.746 30.0803C106 31.0323 105.085 31.7976 104.002 32.3763C102.938 32.9736 101.856 33.2723 100.754 33.2723ZM103.302 24.4243C103.358 24.4429 103.442 24.4523 103.554 24.4523C103.909 24.4523 104.292 24.3029 104.702 24.0043C105.113 23.7056 105.524 23.3229 105.934 22.8563C106.345 22.3709 106.709 21.8856 107.026 21.4003C107.81 20.1869 108.398 19.2536 108.79 18.6003C109.201 17.9469 109.444 17.5363 109.518 17.3683C109.537 17.3683 109.546 17.3496 109.546 17.3123C109.453 16.9949 109.285 16.7709 109.042 16.6403C108.818 16.4909 108.557 16.4163 108.258 16.4163C107.848 16.4163 107.409 16.5283 106.942 16.7523C106.476 16.9763 106.084 17.2469 105.766 17.5643C105.281 18.0496 104.814 18.6749 104.366 19.4403C103.937 20.2056 103.582 20.9616 103.302 21.7083C103.022 22.4549 102.882 23.0803 102.882 23.5843C102.882 24.0509 103.022 24.3309 103.302 24.4243Z" fill="black"/>
</svg>
